<svg width="848" height="2841" viewBox="0 0 848 2841" fill="none" xmlns="http://www.w3.org/2000/svg">
<path d="M0 0C178.971 21.3156 169.665 213.439 163.857 333.333C162.445 362.494 161.239 387.382 163 404.5C163 553.8 354.377 633.412 488.383 689.157C513.694 699.687 536.958 709.365 556.5 718.5C730 809.5 832 1073 844.5 1140C863.53 1242 786.613 1391.27 539.5 1466C377.004 1521.32 334.388 1602.44 250.552 1762.05L249 1765C197.704 1862.65 117.284 2270.21 61.0069 2555.42C31.4127 2705.41 8.495 2821.55 0 2841V0Z" fill="black"/>
</svg>
